<svg width="236" height="52" viewBox="0 0 236 52" fill="none" xmlns="http://www.w3.org/2000/svg">
<path d="M10.8854 0.844907H225.114C230.66 0.844907 235.155 5.34018 235.155 10.8854V41.1146C235.155 46.6598 230.66 51.155 225.114 51.155H10.8854C5.34018 51.155 0.844907 46.6598 0.844907 41.1146V10.8854C0.844907 5.34018 5.34018 0.844907 10.8854 0.844907Z" fill="white" stroke="#F6F9FF" stroke-width="0.794062"/>
<path d="M168.189 27.841C168.102 27.841 168.029 27.8107 167.968 27.75C167.907 27.6893 167.877 27.6157 167.877 27.529V26.671C167.877 26.5757 167.907 26.502 167.968 26.45C168.029 26.3893 168.102 26.359 168.189 26.359H172.18C172.275 26.359 172.349 26.3893 172.401 26.45C172.462 26.502 172.492 26.5757 172.492 26.671V27.529C172.492 27.6157 172.462 27.6893 172.401 27.75C172.349 27.8107 172.275 27.841 172.18 27.841H168.189ZM181.031 31C180.945 31 180.871 30.9697 180.81 30.909C180.75 30.8483 180.719 30.7747 180.719 30.688V29.024H176.598C176.512 29.024 176.438 28.9937 176.377 28.933C176.317 28.8723 176.286 28.7987 176.286 28.712V27.828C176.286 27.6893 176.334 27.5593 176.429 27.438L180.264 22.121C180.308 22.0517 180.373 21.9997 180.459 21.965C180.546 21.9217 180.641 21.9 180.745 21.9H182.162C182.258 21.9 182.331 21.9303 182.383 21.991C182.444 22.043 182.474 22.1167 182.474 22.212V27.49H183.631C183.727 27.49 183.805 27.5203 183.865 27.581C183.926 27.633 183.956 27.7067 183.956 27.802V28.712C183.956 28.7987 183.926 28.8723 183.865 28.933C183.805 28.9937 183.731 29.024 183.644 29.024H182.474V30.688C182.474 30.7747 182.444 30.8483 182.383 30.909C182.331 30.9697 182.258 31 182.162 31H181.031ZM180.758 27.542V23.785L178.093 27.542H180.758ZM188.355 31.143C187.636 31.143 187.016 31.0217 186.496 30.779C185.985 30.5363 185.59 30.2157 185.313 29.817C185.044 29.4183 184.901 28.9893 184.884 28.53V28.504C184.884 28.4347 184.91 28.3783 184.962 28.335C185.014 28.2917 185.079 28.27 185.157 28.27H186.366C186.565 28.27 186.695 28.3567 186.756 28.53C186.877 28.9113 187.077 29.193 187.354 29.375C187.64 29.557 187.974 29.648 188.355 29.648C188.84 29.648 189.243 29.5007 189.564 29.206C189.893 28.9113 190.058 28.4997 190.058 27.971C190.058 27.503 189.893 27.1217 189.564 26.827C189.243 26.5323 188.84 26.385 188.355 26.385C188.095 26.385 187.883 26.4197 187.718 26.489C187.553 26.5583 187.393 26.6537 187.237 26.775C187.133 26.853 187.051 26.9093 186.99 26.944C186.938 26.97 186.873 26.983 186.795 26.983H185.599C185.521 26.983 185.452 26.957 185.391 26.905C185.339 26.8443 185.313 26.775 185.313 26.697L185.768 22.251C185.777 22.147 185.811 22.0647 185.872 22.004C185.941 21.9347 186.028 21.9 186.132 21.9H191.02C191.107 21.9 191.18 21.9303 191.241 21.991C191.302 22.0517 191.332 22.1253 191.332 22.212V23.083C191.332 23.1697 191.302 23.2433 191.241 23.304C191.18 23.3647 191.107 23.395 191.02 23.395H187.263L187.055 25.514C187.48 25.2193 188.047 25.072 188.758 25.072C189.321 25.072 189.841 25.1933 190.318 25.436C190.803 25.67 191.189 26.0123 191.475 26.463C191.761 26.905 191.904 27.4207 191.904 28.01C191.904 28.6427 191.757 29.1973 191.462 29.674C191.167 30.142 190.751 30.506 190.214 30.766C189.685 31.0173 189.066 31.143 188.355 31.143ZM196.702 31.13C195.55 31.13 194.687 30.8093 194.115 30.168C193.552 29.5267 193.244 28.686 193.192 27.646C193.184 27.412 193.179 27.0133 193.179 26.45C193.179 25.878 193.184 25.4707 193.192 25.228C193.236 24.2053 193.548 23.3733 194.128 22.732C194.709 22.0907 195.567 21.77 196.702 21.77C197.846 21.77 198.709 22.0907 199.289 22.732C199.87 23.3733 200.178 24.2053 200.212 25.228C200.23 25.4707 200.238 25.878 200.238 26.45C200.238 27.0133 200.23 27.412 200.212 27.646C200.169 28.686 199.861 29.5267 199.289 30.168C198.726 30.8093 197.864 31.13 196.702 31.13ZM196.702 29.635C197.248 29.635 197.656 29.4573 197.924 29.102C198.193 28.738 198.336 28.231 198.353 27.581C198.371 27.0783 198.379 26.697 198.379 26.437C198.379 26.151 198.371 25.774 198.353 25.306C198.336 24.6647 198.193 24.162 197.924 23.798C197.656 23.434 197.248 23.252 196.702 23.252C196.165 23.252 195.758 23.434 195.48 23.798C195.212 24.162 195.069 24.6647 195.051 25.306C195.043 25.54 195.038 25.917 195.038 26.437C195.038 26.9483 195.043 27.3297 195.051 27.581C195.069 28.231 195.212 28.738 195.48 29.102C195.758 29.4573 196.165 29.635 196.702 29.635ZM204.583 31C204.497 31 204.423 30.9697 204.362 30.909C204.302 30.8483 204.271 30.7747 204.271 30.688V23.954L202.295 25.475C202.243 25.5183 202.183 25.54 202.113 25.54C202.009 25.54 201.923 25.4923 201.853 25.397L201.307 24.695C201.264 24.6257 201.242 24.5607 201.242 24.5C201.242 24.396 201.29 24.3093 201.385 24.24L204.297 21.991C204.375 21.9303 204.484 21.9 204.622 21.9H205.766C205.862 21.9 205.935 21.9303 205.987 21.991C206.048 22.043 206.078 22.1167 206.078 22.212V30.688C206.078 30.7747 206.048 30.8483 205.987 30.909C205.935 30.9697 205.862 31 205.766 31H204.583Z" fill="#182449"/>
<path d="M212.716 31.08C212.242 31.08 211.834 31.008 211.492 30.864C211.151 30.72 210.892 30.5307 210.716 30.296C210.54 30.0613 210.447 29.808 210.436 29.536C210.436 29.488 210.452 29.448 210.484 29.416C210.516 29.384 210.556 29.368 210.604 29.368H211.316C211.38 29.368 211.428 29.3813 211.46 29.408C211.498 29.4293 211.532 29.4667 211.564 29.52C211.618 29.7013 211.74 29.8533 211.932 29.976C212.124 30.0987 212.386 30.16 212.716 30.16C213.095 30.16 213.38 30.0987 213.572 29.976C213.764 29.848 213.86 29.672 213.86 29.448C213.86 29.2987 213.81 29.176 213.708 29.08C213.612 28.984 213.466 28.9013 213.268 28.832C213.076 28.7627 212.788 28.6773 212.404 28.576C211.775 28.4267 211.314 28.2293 211.02 27.984C210.732 27.7333 210.588 27.3787 210.588 26.92C210.588 26.6107 210.671 26.336 210.836 26.096C211.007 25.856 211.25 25.6667 211.564 25.528C211.884 25.3893 212.255 25.32 212.676 25.32C213.114 25.32 213.492 25.3973 213.812 25.552C214.132 25.7067 214.375 25.9013 214.54 26.136C214.711 26.3653 214.802 26.5947 214.812 26.824C214.812 26.872 214.796 26.912 214.764 26.944C214.732 26.976 214.692 26.992 214.644 26.992H213.9C213.788 26.992 213.711 26.9413 213.668 26.84C213.636 26.6693 213.53 26.528 213.348 26.416C213.167 26.2987 212.943 26.24 212.676 26.24C212.378 26.24 212.143 26.296 211.972 26.408C211.802 26.52 211.716 26.6827 211.716 26.896C211.716 27.0453 211.759 27.168 211.844 27.264C211.93 27.36 212.063 27.4453 212.244 27.52C212.431 27.5947 212.698 27.6773 213.044 27.768C213.514 27.8747 213.887 27.9947 214.164 28.128C214.447 28.2613 214.655 28.4293 214.788 28.632C214.922 28.8347 214.988 29.0933 214.988 29.408C214.988 29.7493 214.892 30.048 214.7 30.304C214.514 30.5547 214.247 30.7467 213.9 30.88C213.559 31.0133 213.164 31.08 212.716 31.08ZM215.475 31C215.433 31 215.393 30.984 215.355 30.952C215.323 30.92 215.307 30.88 215.307 30.832L215.323 30.76L217.251 25.6C217.289 25.4667 217.382 25.4 217.531 25.4H218.403C218.542 25.4 218.635 25.4667 218.683 25.6L220.611 30.76C220.617 30.776 220.619 30.8 220.619 30.832C220.619 30.88 220.603 30.92 220.571 30.952C220.539 30.984 220.502 31 220.459 31H219.763C219.694 31 219.641 30.984 219.603 30.952C219.566 30.92 219.542 30.8853 219.531 30.848L219.155 29.872H216.779L216.403 30.848C216.361 30.9493 216.283 31 216.171 31H215.475ZM218.875 28.952L217.963 26.48L217.059 28.952H218.875ZM222.204 31C222.151 31 222.106 30.9813 222.068 30.944C222.031 30.9067 222.012 30.8613 222.012 30.808V26.384H220.532C220.479 26.384 220.434 26.3653 220.396 26.328C220.359 26.2907 220.34 26.2453 220.34 26.192V25.6C220.34 25.5413 220.356 25.4933 220.388 25.456C220.426 25.4187 220.474 25.4 220.532 25.4H224.612C224.671 25.4 224.719 25.4187 224.756 25.456C224.794 25.4933 224.812 25.5413 224.812 25.6V26.192C224.812 26.2453 224.794 26.2907 224.756 26.328C224.719 26.3653 224.671 26.384 224.612 26.384H223.14V30.808C223.14 30.8613 223.122 30.9067 223.084 30.944C223.047 30.9813 222.999 31 222.94 31H222.204Z" fill="#182449"/>
<path d="M53.73 38.61C53.67 38.61 53.62 38.59 53.58 38.55C53.54 38.51 53.5233 38.46 53.53 38.4L53.71 37.19H52.72C52.6533 37.19 52.6 37.17 52.56 37.13C52.52 37.09 52.5 37.0367 52.5 36.97V36.63C52.5 36.5633 52.52 36.51 52.56 36.47C52.6 36.43 52.6533 36.41 52.72 36.41H53.83L54.09 34.65H52.98C52.9133 34.65 52.86 34.63 52.82 34.59C52.78 34.55 52.76 34.4967 52.76 34.43V34.09C52.76 34.0233 52.78 33.97 52.82 33.93C52.86 33.89 52.9133 33.87 52.98 33.87H54.21L54.39 32.66C54.4033 32.6 54.4267 32.55 54.46 32.51C54.5 32.47 54.55 32.45 54.61 32.45H54.98C55.04 32.45 55.09 32.47 55.13 32.51C55.17 32.55 55.1867 32.6 55.18 32.66L55 33.87H56.48L56.66 32.66C56.6733 32.6 56.6967 32.55 56.73 32.51C56.77 32.47 56.82 32.45 56.88 32.45H57.25C57.31 32.45 57.36 32.47 57.4 32.51C57.44 32.55 57.4567 32.6 57.45 32.66L57.27 33.87H58.24C58.3067 33.87 58.36 33.89 58.4 33.93C58.4467 33.97 58.47 34.0233 58.47 34.09V34.43C58.47 34.4967 58.4467 34.55 58.4 34.59C58.36 34.63 58.3067 34.65 58.24 34.65H57.16L56.9 36.41H57.98C58.0467 36.41 58.1 36.43 58.14 36.47C58.1867 36.51 58.21 36.5633 58.21 36.63V36.97C58.21 37.0367 58.1867 37.09 58.14 37.13C58.1 37.17 58.0467 37.19 57.98 37.19H56.78L56.6 38.4C56.5867 38.46 56.56 38.51 56.52 38.55C56.48 38.59 56.43 38.61 56.37 38.61H56C55.94 38.61 55.89 38.59 55.85 38.55C55.81 38.51 55.7933 38.46 55.8 38.4L55.98 37.19H54.51L54.33 38.4C54.3167 38.46 54.29 38.51 54.25 38.55C54.21 38.59 54.16 38.61 54.1 38.61H53.73ZM56.1 36.41L56.36 34.65H54.89L54.63 36.41H56.1ZM61.5127 39.1C61.046 39.1 60.6527 39.0267 60.3327 38.88C60.0193 38.7267 59.7827 38.5533 59.6227 38.36C59.4693 38.1667 59.3927 38.0067 59.3927 37.88C59.3927 37.8133 59.416 37.7633 59.4627 37.73C59.516 37.69 59.5693 37.67 59.6227 37.67H60.0727C60.1393 37.67 60.1993 37.7033 60.2527 37.77C60.4127 37.9567 60.586 38.1033 60.7727 38.21C60.9593 38.3167 61.2093 38.37 61.5227 38.37C61.8693 38.37 62.1493 38.3033 62.3627 38.17C62.5827 38.03 62.6927 37.84 62.6927 37.6C62.6927 37.44 62.646 37.31 62.5527 37.21C62.466 37.1033 62.3127 37.0133 62.0927 36.94C61.8793 36.86 61.5593 36.7733 61.1327 36.68C60.5527 36.5533 60.1393 36.37 59.8927 36.13C59.6527 35.89 59.5327 35.58 59.5327 35.2C59.5327 34.9467 59.606 34.7067 59.7527 34.48C59.906 34.2467 60.126 34.06 60.4127 33.92C60.706 33.7733 61.056 33.7 61.4627 33.7C61.8893 33.7 62.2527 33.77 62.5527 33.91C62.8527 34.05 63.076 34.2167 63.2227 34.41C63.376 34.5967 63.4527 34.7533 63.4527 34.88C63.4527 34.94 63.4293 34.99 63.3827 35.03C63.3427 35.07 63.2927 35.09 63.2327 35.09H62.8127C62.7327 35.09 62.666 35.0567 62.6127 34.99C62.506 34.8633 62.4127 34.7667 62.3327 34.7C62.2593 34.6267 62.1493 34.5633 62.0027 34.51C61.8627 34.4567 61.6827 34.43 61.4627 34.43C61.1427 34.43 60.896 34.5 60.7227 34.64C60.5493 34.7733 60.4627 34.95 60.4627 35.17C60.4627 35.31 60.4993 35.43 60.5727 35.53C60.646 35.6233 60.786 35.71 60.9927 35.79C61.206 35.87 61.5127 35.9533 61.9127 36.04C62.546 36.1733 62.9927 36.3667 63.2527 36.62C63.5193 36.8667 63.6527 37.1833 63.6527 37.57C63.6527 37.8567 63.5693 38.1167 63.4027 38.35C63.236 38.5833 62.9893 38.7667 62.6627 38.9C62.3427 39.0333 61.9593 39.1 61.5127 39.1ZM66.8305 39C65.7772 39 65.2505 38.4133 65.2505 37.24V34.6H64.4705C64.4039 34.6 64.3472 34.58 64.3005 34.54C64.2605 34.4933 64.2405 34.4367 64.2405 34.37V34.03C64.2405 33.9633 64.2605 33.91 64.3005 33.87C64.3472 33.8233 64.4039 33.8 64.4705 33.8H65.2505V32.13C65.2505 32.0633 65.2705 32.01 65.3105 31.97C65.3572 31.9233 65.4139 31.9 65.4805 31.9H65.9505C66.0172 31.9 66.0705 31.9233 66.1105 31.97C66.1572 32.01 66.1805 32.0633 66.1805 32.13V33.8H67.4205C67.4872 33.8 67.5405 33.8233 67.5805 33.87C67.6272 33.91 67.6505 33.9633 67.6505 34.03V34.37C67.6505 34.4367 67.6272 34.4933 67.5805 34.54C67.5405 34.58 67.4872 34.6 67.4205 34.6H66.1805V37.17C66.1805 37.5033 66.2372 37.7567 66.3505 37.93C66.4639 38.0967 66.6505 38.18 66.9105 38.18H67.5205C67.5872 38.18 67.6405 38.2033 67.6805 38.25C67.7272 38.29 67.7505 38.3433 67.7505 38.41V38.77C67.7505 38.8367 67.7272 38.8933 67.6805 38.94C67.6405 38.98 67.5872 39 67.5205 39H66.8305ZM70.1568 39.1C69.8301 39.1 69.5268 39.0333 69.2468 38.9C68.9668 38.7667 68.7435 38.5867 68.5768 38.36C68.4168 38.1267 68.3368 37.87 68.3368 37.59C68.3368 37.15 68.5168 36.79 68.8768 36.51C69.2435 36.2233 69.7368 36.0367 70.3568 35.95L71.8468 35.74V35.45C71.8468 34.77 71.4568 34.43 70.6768 34.43C70.3835 34.43 70.1435 34.4933 69.9568 34.62C69.7701 34.74 69.6301 34.8833 69.5368 35.05C69.5168 35.11 69.4901 35.1533 69.4568 35.18C69.4301 35.2067 69.3901 35.22 69.3368 35.22H68.9068C68.8468 35.22 68.7935 35.2 68.7468 35.16C68.7068 35.1133 68.6868 35.06 68.6868 35C68.6935 34.84 68.7668 34.66 68.9068 34.46C69.0535 34.2533 69.2768 34.0767 69.5768 33.93C69.8768 33.7767 70.2468 33.7 70.6868 33.7C71.4335 33.7 71.9701 33.8767 72.2968 34.23C72.6235 34.5767 72.7868 35.01 72.7868 35.53V38.77C72.7868 38.8367 72.7635 38.8933 72.7168 38.94C72.6768 38.98 72.6235 39 72.5568 39H72.0968C72.0301 39 71.9735 38.98 71.9268 38.94C71.8868 38.8933 71.8668 38.8367 71.8668 38.77V38.34C71.7201 38.5533 71.5068 38.7333 71.2268 38.88C70.9468 39.0267 70.5901 39.1 70.1568 39.1ZM70.3668 38.35C70.8001 38.35 71.1535 38.21 71.4268 37.93C71.7068 37.6433 71.8468 37.2333 71.8468 36.7V36.42L70.6868 36.59C70.2135 36.6567 69.8568 36.77 69.6168 36.93C69.3768 37.0833 69.2568 37.28 69.2568 37.52C69.2568 37.7867 69.3668 37.9933 69.5868 38.14C69.8068 38.28 70.0668 38.35 70.3668 38.35ZM76.3244 39.1C75.611 39.1 75.051 38.9 74.6444 38.5C74.2444 38.0933 74.031 37.5267 74.0044 36.8L73.9944 36.4L74.0044 36C74.031 35.2733 74.2444 34.71 74.6444 34.31C75.051 33.9033 75.611 33.7 76.3244 33.7C76.8044 33.7 77.211 33.7867 77.5444 33.96C77.8777 34.1333 78.1244 34.3467 78.2844 34.6C78.451 34.8533 78.541 35.1067 78.5544 35.36C78.561 35.4267 78.541 35.48 78.4944 35.52C78.4477 35.56 78.391 35.58 78.3244 35.58H77.8444C77.7777 35.58 77.7277 35.5667 77.6944 35.54C77.661 35.5133 77.6277 35.46 77.5944 35.38C77.481 35.06 77.321 34.8333 77.1144 34.7C76.9077 34.56 76.6477 34.49 76.3344 34.49C75.921 34.49 75.591 34.62 75.3444 34.88C75.1044 35.1333 74.9744 35.5233 74.9544 36.05L74.9444 36.41L74.9544 36.75C74.9744 37.2833 75.1044 37.6767 75.3444 37.93C75.5844 38.1833 75.9144 38.31 76.3344 38.31C76.6477 38.31 76.9077 38.2433 77.1144 38.11C77.321 37.97 77.481 37.74 77.5944 37.42C77.6277 37.34 77.661 37.2867 77.6944 37.26C77.7277 37.2267 77.7777 37.21 77.8444 37.21H78.3244C78.391 37.21 78.4477 37.2333 78.4944 37.28C78.541 37.32 78.561 37.3733 78.5544 37.44C78.541 37.6867 78.451 37.94 78.2844 38.2C78.1244 38.4533 77.8777 38.6667 77.5444 38.84C77.2177 39.0133 76.811 39.1 76.3244 39.1ZM79.982 39C79.9153 39 79.8586 38.98 79.812 38.94C79.772 38.8933 79.752 38.8367 79.752 38.77V32.13C79.752 32.0633 79.772 32.01 79.812 31.97C79.8586 31.9233 79.9153 31.9 79.982 31.9H80.452C80.5186 31.9 80.572 31.9233 80.612 31.97C80.6586 32.01 80.682 32.0633 80.682 32.13V35.61L82.652 33.97C82.672 33.9567 82.7053 33.93 82.752 33.89C82.7986 33.8567 82.842 33.8333 82.882 33.82C82.9286 33.8067 82.9853 33.8 83.052 33.8H83.582C83.642 33.8 83.692 33.82 83.732 33.86C83.772 33.9 83.792 33.95 83.792 34.01C83.792 34.0833 83.752 34.1467 83.672 34.2L81.362 36.12L83.922 38.61C84.002 38.6767 84.042 38.7367 84.042 38.79C84.042 38.85 84.022 38.9 83.982 38.94C83.942 38.98 83.892 39 83.832 39H83.312C83.212 39 83.1386 38.99 83.092 38.97C83.052 38.95 82.992 38.9033 82.912 38.83L80.682 36.7V38.77C80.682 38.8367 80.6586 38.8933 80.612 38.94C80.572 38.98 80.5186 39 80.452 39H79.982ZM86.6005 39.1C86.1339 39.1 85.7405 39.0267 85.4205 38.88C85.1072 38.7267 84.8705 38.5533 84.7105 38.36C84.5572 38.1667 84.4805 38.0067 84.4805 37.88C84.4805 37.8133 84.5039 37.7633 84.5505 37.73C84.6039 37.69 84.6572 37.67 84.7105 37.67H85.1605C85.2272 37.67 85.2872 37.7033 85.3405 37.77C85.5005 37.9567 85.6739 38.1033 85.8605 38.21C86.0472 38.3167 86.2972 38.37 86.6105 38.37C86.9572 38.37 87.2372 38.3033 87.4505 38.17C87.6705 38.03 87.7805 37.84 87.7805 37.6C87.7805 37.44 87.7339 37.31 87.6405 37.21C87.5539 37.1033 87.4005 37.0133 87.1805 36.94C86.9672 36.86 86.6472 36.7733 86.2205 36.68C85.6405 36.5533 85.2272 36.37 84.9805 36.13C84.7405 35.89 84.6205 35.58 84.6205 35.2C84.6205 34.9467 84.6939 34.7067 84.8405 34.48C84.9939 34.2467 85.2139 34.06 85.5005 33.92C85.7939 33.7733 86.1439 33.7 86.5505 33.7C86.9772 33.7 87.3405 33.77 87.6405 33.91C87.9405 34.05 88.1639 34.2167 88.3105 34.41C88.4639 34.5967 88.5405 34.7533 88.5405 34.88C88.5405 34.94 88.5172 34.99 88.4705 35.03C88.4305 35.07 88.3805 35.09 88.3205 35.09H87.9005C87.8205 35.09 87.7539 35.0567 87.7005 34.99C87.5939 34.8633 87.5005 34.7667 87.4205 34.7C87.3472 34.6267 87.2372 34.5633 87.0905 34.51C86.9505 34.4567 86.7705 34.43 86.5505 34.43C86.2305 34.43 85.9839 34.5 85.8105 34.64C85.6372 34.7733 85.5505 34.95 85.5505 35.17C85.5505 35.31 85.5872 35.43 85.6605 35.53C85.7339 35.6233 85.8739 35.71 86.0805 35.79C86.2939 35.87 86.6005 35.9533 87.0005 36.04C87.6339 36.1733 88.0805 36.3667 88.3405 36.62C88.6072 36.8667 88.7405 37.1833 88.7405 37.57C88.7405 37.8567 88.6572 38.1167 88.4905 38.35C88.3239 38.5833 88.0772 38.7667 87.7505 38.9C87.4305 39.0333 87.0472 39.1 86.6005 39.1ZM91.3482 39.1C91.0215 39.1 90.7182 39.0333 90.4382 38.9C90.1582 38.7667 89.9349 38.5867 89.7682 38.36C89.6082 38.1267 89.5282 37.87 89.5282 37.59C89.5282 37.15 89.7082 36.79 90.0682 36.51C90.4349 36.2233 90.9282 36.0367 91.5482 35.95L93.0382 35.74V35.45C93.0382 34.77 92.6482 34.43 91.8682 34.43C91.5749 34.43 91.3349 34.4933 91.1482 34.62C90.9615 34.74 90.8215 34.8833 90.7282 35.05C90.7082 35.11 90.6815 35.1533 90.6482 35.18C90.6215 35.2067 90.5815 35.22 90.5282 35.22H90.0982C90.0382 35.22 89.9849 35.2 89.9382 35.16C89.8982 35.1133 89.8782 35.06 89.8782 35C89.8849 34.84 89.9582 34.66 90.0982 34.46C90.2449 34.2533 90.4682 34.0767 90.7682 33.93C91.0682 33.7767 91.4382 33.7 91.8782 33.7C92.6249 33.7 93.1615 33.8767 93.4882 34.23C93.8149 34.5767 93.9782 35.01 93.9782 35.53V38.77C93.9782 38.8367 93.9549 38.8933 93.9082 38.94C93.8682 38.98 93.8149 39 93.7482 39H93.2882C93.2215 39 93.1649 38.98 93.1182 38.94C93.0782 38.8933 93.0582 38.8367 93.0582 38.77V38.34C92.9115 38.5533 92.6982 38.7333 92.4182 38.88C92.1382 39.0267 91.7815 39.1 91.3482 39.1ZM91.5582 38.35C91.9915 38.35 92.3449 38.21 92.6182 37.93C92.8982 37.6433 93.0382 37.2333 93.0382 36.7V36.42L91.8782 36.59C91.4049 36.6567 91.0482 36.77 90.8082 36.93C90.5682 37.0833 90.4482 37.28 90.4482 37.52C90.4482 37.7867 90.5582 37.9933 90.7782 38.14C90.9982 38.28 91.2582 38.35 91.5582 38.35ZM97.397 39C96.3436 39 95.817 38.4133 95.817 37.24V34.6H95.037C94.9703 34.6 94.9136 34.58 94.867 34.54C94.827 34.4933 94.807 34.4367 94.807 34.37V34.03C94.807 33.9633 94.827 33.91 94.867 33.87C94.9136 33.8233 94.9703 33.8 95.037 33.8H95.817V32.13C95.817 32.0633 95.837 32.01 95.877 31.97C95.9236 31.9233 95.9803 31.9 96.047 31.9H96.517C96.5836 31.9 96.637 31.9233 96.677 31.97C96.7236 32.01 96.747 32.0633 96.747 32.13V33.8H97.987C98.0536 33.8 98.107 33.8233 98.147 33.87C98.1936 33.91 98.217 33.9633 98.217 34.03V34.37C98.217 34.4367 98.1936 34.4933 98.147 34.54C98.107 34.58 98.0536 34.6 97.987 34.6H96.747V37.17C96.747 37.5033 96.8036 37.7567 96.917 37.93C97.0303 38.0967 97.217 38.18 97.477 38.18H98.087C98.1536 38.18 98.207 38.2033 98.247 38.25C98.2936 38.29 98.317 38.3433 98.317 38.41V38.77C98.317 38.8367 98.2936 38.8933 98.247 38.94C98.207 38.98 98.1536 39 98.087 39H97.397ZM101.073 39.1C100.607 39.1 100.213 39.0267 99.8932 38.88C99.5799 38.7267 99.3432 38.5533 99.1832 38.36C99.0299 38.1667 98.9532 38.0067 98.9532 37.88C98.9532 37.8133 98.9765 37.7633 99.0232 37.73C99.0765 37.69 99.1299 37.67 99.1832 37.67H99.6332C99.6999 37.67 99.7599 37.7033 99.8132 37.77C99.9732 37.9567 100.147 38.1033 100.333 38.21C100.52 38.3167 100.77 38.37 101.083 38.37C101.43 38.37 101.71 38.3033 101.923 38.17C102.143 38.03 102.253 37.84 102.253 37.6C102.253 37.44 102.207 37.31 102.113 37.21C102.027 37.1033 101.873 37.0133 101.653 36.94C101.44 36.86 101.12 36.7733 100.693 36.68C100.113 36.5533 99.6999 36.37 99.4532 36.13C99.2132 35.89 99.0932 35.58 99.0932 35.2C99.0932 34.9467 99.1665 34.7067 99.3132 34.48C99.4665 34.2467 99.6865 34.06 99.9732 33.92C100.267 33.7733 100.617 33.7 101.023 33.7C101.45 33.7 101.813 33.77 102.113 33.91C102.413 34.05 102.637 34.2167 102.783 34.41C102.937 34.5967 103.013 34.7533 103.013 34.88C103.013 34.94 102.99 34.99 102.943 35.03C102.903 35.07 102.853 35.09 102.793 35.09H102.373C102.293 35.09 102.227 35.0567 102.173 34.99C102.067 34.8633 101.973 34.7667 101.893 34.7C101.82 34.6267 101.71 34.5633 101.563 34.51C101.423 34.4567 101.243 34.43 101.023 34.43C100.703 34.43 100.457 34.5 100.283 34.64C100.11 34.7733 100.023 34.95 100.023 35.17C100.023 35.31 100.06 35.43 100.133 35.53C100.207 35.6233 100.347 35.71 100.553 35.79C100.767 35.87 101.073 35.9533 101.473 36.04C102.107 36.1733 102.553 36.3667 102.813 36.62C103.08 36.8667 103.213 37.1833 103.213 37.57C103.213 37.8567 103.13 38.1167 102.963 38.35C102.797 38.5833 102.55 38.7667 102.223 38.9C101.903 39.0333 101.52 39.1 101.073 39.1Z" fill="#576580"/>
<path d="M55.718 23C55.6313 23 55.5577 22.9697 55.497 22.909C55.4363 22.8483 55.406 22.7747 55.406 22.688V19.75L52.338 14.316C52.312 14.2727 52.299 14.225 52.299 14.173C52.299 14.095 52.325 14.03 52.377 13.978C52.429 13.926 52.4897 13.9 52.559 13.9H53.716C53.8113 13.9 53.8893 13.926 53.95 13.978C54.0193 14.03 54.0713 14.0863 54.106 14.147L56.316 17.93L58.513 14.147C58.617 13.9823 58.7513 13.9 58.916 13.9H60.06C60.138 13.9 60.203 13.926 60.255 13.978C60.307 14.03 60.333 14.095 60.333 14.173C60.333 14.225 60.32 14.2727 60.294 14.316L57.226 19.75V22.688C57.226 22.7747 57.1957 22.8483 57.135 22.909C57.0743 22.9697 56.9963 23 56.901 23H55.718ZM63.0992 23.13C62.0852 23.13 61.3009 22.87 60.7462 22.35C60.1915 21.8213 59.8925 21.102 59.8492 20.192L59.8362 19.62L59.8492 19.048C59.8925 18.1467 60.1959 17.4317 60.7592 16.903C61.3225 16.3743 62.1025 16.11 63.0992 16.11C64.0959 16.11 64.8759 16.3743 65.4392 16.903C66.0025 17.4317 66.3059 18.1467 66.3492 19.048C66.3579 19.152 66.3622 19.3427 66.3622 19.62C66.3622 19.8973 66.3579 20.088 66.3492 20.192C66.3059 21.102 66.0069 21.8213 65.4522 22.35C64.8975 22.87 64.1132 23.13 63.0992 23.13ZM63.0992 21.843C63.5585 21.843 63.9139 21.7 64.1652 21.414C64.4165 21.1193 64.5552 20.6903 64.5812 20.127C64.5899 20.0403 64.5942 19.8713 64.5942 19.62C64.5942 19.3687 64.5899 19.1997 64.5812 19.113C64.5552 18.5497 64.4165 18.125 64.1652 17.839C63.9139 17.5443 63.5585 17.397 63.0992 17.397C62.6399 17.397 62.2845 17.5443 62.0332 17.839C61.7819 18.125 61.6432 18.5497 61.6172 19.113L61.6042 19.62L61.6172 20.127C61.6432 20.6903 61.7819 21.1193 62.0332 21.414C62.2845 21.7 62.6399 21.843 63.0992 21.843ZM70.0471 23.13C69.2498 23.13 68.6215 22.87 68.1621 22.35C67.7028 21.8213 67.4731 21.1063 67.4731 20.205V16.552C67.4731 16.4653 67.5035 16.3917 67.5641 16.331C67.6248 16.2703 67.6985 16.24 67.7851 16.24H68.9291C69.0245 16.24 69.0981 16.2703 69.1501 16.331C69.2108 16.383 69.2411 16.4567 69.2411 16.552V20.127C69.2411 21.2017 69.7135 21.739 70.6581 21.739C71.1088 21.739 71.4641 21.596 71.7241 21.31C71.9928 21.024 72.1271 20.6297 72.1271 20.127V16.552C72.1271 16.4653 72.1575 16.3917 72.2181 16.331C72.2788 16.2703 72.3525 16.24 72.4391 16.24H73.5831C73.6785 16.24 73.7521 16.2703 73.8041 16.331C73.8648 16.383 73.8951 16.4567 73.8951 16.552V22.688C73.8951 22.7747 73.8648 22.8483 73.8041 22.909C73.7521 22.9697 73.6785 23 73.5831 23H72.5301C72.4435 23 72.3698 22.9697 72.3091 22.909C72.2485 22.8483 72.2181 22.7747 72.2181 22.688V22.155C71.7328 22.805 71.0091 23.13 70.0471 23.13ZM80.6152 23.13C79.9652 23.13 79.4192 23.0347 78.9772 22.844C78.5352 22.6447 78.2058 22.415 77.9892 22.155C77.7812 21.8863 77.6772 21.6567 77.6772 21.466C77.6772 21.3793 77.7075 21.31 77.7682 21.258C77.8288 21.206 77.8982 21.18 77.9762 21.18H79.0032C79.0812 21.18 79.1462 21.2103 79.1982 21.271C79.2328 21.297 79.3238 21.375 79.4712 21.505C79.6185 21.6437 79.7918 21.752 79.9912 21.83C80.1905 21.908 80.4115 21.947 80.6542 21.947C81.0008 21.947 81.2868 21.8777 81.5122 21.739C81.7375 21.6003 81.8502 21.4097 81.8502 21.167C81.8502 20.985 81.7982 20.8377 81.6942 20.725C81.5988 20.6123 81.4212 20.5127 81.1612 20.426C80.9012 20.3307 80.5155 20.231 80.0042 20.127C79.2675 19.971 78.7215 19.7327 78.3662 19.412C78.0195 19.0913 77.8462 18.6667 77.8462 18.138C77.8462 17.7913 77.9502 17.4663 78.1582 17.163C78.3662 16.851 78.6738 16.5997 79.0812 16.409C79.4972 16.2097 79.9912 16.11 80.5632 16.11C81.1438 16.11 81.6465 16.2053 82.0712 16.396C82.4958 16.578 82.8165 16.799 83.0332 17.059C83.2585 17.3103 83.3712 17.5357 83.3712 17.735C83.3712 17.813 83.3408 17.8823 83.2802 17.943C83.2282 17.995 83.1632 18.021 83.0852 18.021H82.1232C82.0538 18.021 81.9802 17.9907 81.9022 17.93C81.8415 17.8867 81.7462 17.8043 81.6162 17.683C81.4862 17.5617 81.3345 17.4663 81.1612 17.397C80.9878 17.3277 80.7842 17.293 80.5502 17.293C80.2295 17.293 79.9782 17.3623 79.7962 17.501C79.6228 17.6397 79.5362 17.8217 79.5362 18.047C79.5362 18.2117 79.5795 18.346 79.6662 18.45C79.7528 18.554 79.9218 18.6537 80.1732 18.749C80.4245 18.8443 80.8015 18.9397 81.3042 19.035C82.1362 19.1997 82.7298 19.4553 83.0852 19.802C83.4492 20.1487 83.6312 20.5733 83.6312 21.076C83.6312 21.6827 83.3668 22.1767 82.8382 22.558C82.3095 22.9393 81.5685 23.13 80.6152 23.13ZM87.6207 23.13C86.6587 23.13 85.8917 22.8527 85.3197 22.298C84.7564 21.7347 84.4574 20.946 84.4227 19.932L84.4097 19.607L84.4227 19.282C84.466 18.294 84.7694 17.5183 85.3327 16.955C85.9047 16.3917 86.6674 16.11 87.6207 16.11C88.6434 16.11 89.432 16.422 89.9867 17.046C90.55 17.67 90.8317 18.502 90.8317 19.542V19.815C90.8317 19.9017 90.8014 19.9753 90.7407 20.036C90.68 20.0967 90.602 20.127 90.5067 20.127H86.1907V20.231C86.208 20.7077 86.338 21.1107 86.5807 21.44C86.832 21.7607 87.1744 21.921 87.6077 21.921C88.119 21.921 88.5307 21.7217 88.8427 21.323C88.9207 21.2277 88.9814 21.167 89.0247 21.141C89.0767 21.115 89.1504 21.102 89.2457 21.102H90.3637C90.4417 21.102 90.5067 21.128 90.5587 21.18C90.6194 21.2233 90.6497 21.2797 90.6497 21.349C90.6497 21.557 90.524 21.804 90.2727 22.09C90.03 22.3673 89.679 22.61 89.2197 22.818C88.7604 23.026 88.2274 23.13 87.6207 23.13ZM89.0637 19.035V18.996C89.0637 18.4847 88.9337 18.073 88.6737 17.761C88.4224 17.449 88.0714 17.293 87.6207 17.293C87.17 17.293 86.819 17.449 86.5677 17.761C86.3164 18.073 86.1907 18.4847 86.1907 18.996V19.035H89.0637ZM92.2592 23C92.1725 23 92.0989 22.9697 92.0382 22.909C91.9775 22.8483 91.9472 22.7747 91.9472 22.688V16.552C91.9472 16.4653 91.9775 16.3917 92.0382 16.331C92.0989 16.2703 92.1725 16.24 92.2592 16.24H93.3252C93.4119 16.24 93.4855 16.2703 93.5462 16.331C93.6069 16.3917 93.6372 16.4653 93.6372 16.552V17.085C94.1485 16.435 94.8722 16.11 95.8082 16.11C96.6055 16.11 97.2382 16.3743 97.7062 16.903C98.1742 17.423 98.4082 18.1337 98.4082 19.035V22.688C98.4082 22.7747 98.3779 22.8483 98.3172 22.909C98.2652 22.9697 98.1915 23 98.0962 23H96.9522C96.8655 23 96.7919 22.9697 96.7312 22.909C96.6705 22.8483 96.6402 22.7747 96.6402 22.688V19.113C96.6402 18.6017 96.5145 18.2073 96.2632 17.93C96.0205 17.644 95.6652 17.501 95.1972 17.501C94.7379 17.501 94.3739 17.644 94.1052 17.93C93.8452 18.216 93.7152 18.6103 93.7152 19.113V22.688C93.7152 22.7747 93.6849 22.8483 93.6242 22.909C93.5722 22.9697 93.4985 23 93.4032 23H92.2592ZM102.774 23C101.985 23 101.392 22.7963 100.993 22.389C100.603 21.973 100.408 21.3663 100.408 20.569V17.618H99.3809C99.2942 17.618 99.2206 17.5877 99.1599 17.527C99.0992 17.4577 99.0689 17.3797 99.0689 17.293V16.552C99.0689 16.4653 99.0992 16.3917 99.1599 16.331C99.2206 16.2703 99.2942 16.24 99.3809 16.24H100.408V14.082C100.408 13.9867 100.438 13.913 100.499 13.861C100.56 13.8003 100.633 13.77 100.72 13.77H101.773C101.868 13.77 101.942 13.8003 101.994 13.861C102.055 13.913 102.085 13.9867 102.085 14.082V16.24H103.71C103.805 16.24 103.879 16.2703 103.931 16.331C103.992 16.383 104.022 16.4567 104.022 16.552V17.293C104.022 17.3883 103.992 17.4663 103.931 17.527C103.87 17.5877 103.797 17.618 103.71 17.618H102.085V20.439C102.085 20.8117 102.15 21.0933 102.28 21.284C102.41 21.4747 102.627 21.57 102.93 21.57H103.827C103.914 21.57 103.987 21.6003 104.048 21.661C104.109 21.7217 104.139 21.7953 104.139 21.882V22.688C104.139 22.7747 104.109 22.8483 104.048 22.909C103.996 22.9697 103.922 23 103.827 23H102.774Z" fill="#182449"/>
<path d="M28 43C36.8366 43 44 35.8366 44 27C44 18.1634 36.8366 11 28 11C19.1634 11 12 18.1634 12 27C12 35.8366 19.1634 43 28 43Z" fill="#3970DB"/>
<path d="M26.6687 28.0657L24.118 27.3251C23.6249 27.1819 23.4688 26.5508 23.8312 26.1654L30.0749 19.5243C30.581 18.986 31.4357 19.4868 31.2228 20.1969L29.4356 26.1549L31.9863 26.8956C32.4794 27.0388 32.6355 27.6698 32.2731 28.0552L26.0293 34.6963C25.5232 35.2346 24.6685 34.7338 24.8815 34.0238L26.6687 28.0657Z" fill="white"/>
</svg>
